<?xml version="1.0" encoding="utf-8"?>
<!-- Generator: Adobe Illustrator 22.1.0, SVG Export Plug-In . SVG Version: 6.00 Build 0)  -->
<svg version="1.1" id="Слой_1" xmlns="http://www.w3.org/2000/svg" xmlns:xlink="http://www.w3.org/1999/xlink" x="0px" y="0px"
	 viewBox="0 0 349.7 115" style="enable-background:new 0 0 349.7 115;" xml:space="preserve">
<style type="text/css">
	.st0{opacity:0.548;fill:#8C8C8C;fill-opacity:0.536;enable-background:new    ;}
	.st1{opacity:0.887;}
	.st2{fill:#FFFFFF;}
</style>
<g>
	<path class="st0" d="M105.6,1.4h28.8c15.9,0,28.8,12.9,28.8,28.8c0,15.9-12.9,28.8-28.8,28.8h-28.8v-0.4h1c1.6,0,2.9-1.3,2.9-2.9
		V4.7c0-1.6-1.3-2.9-2.9-2.9h-1C105.6,1.8,105.6,1.4,105.6,1.4z M128.7,1.8v56.8h5.8c0.8,0,1.5,0,2.2-0.1c0.3,0,0.5-0.1,0.8-0.1
		c3.7-0.5,6.6-3.7,6.6-7.6V9.6c0-3.9-2.9-7.2-6.7-7.6c-0.3-0.1-0.4-0.1-0.6-0.1c-0.8-0.1-1.5-0.1-2.3-0.1
		C134.4,1.8,128.7,1.8,128.7,1.8z M196.9,0.6c16.4,0,29.6,13.2,29.6,29.6s-13.2,29.6-29.6,29.6c-16.3,0-29.6-13.2-29.6-29.6
		S180.6,0.6,196.9,0.6z M196.9,1c-0.6,0-1.2,0-1.8,0.1c-0.5,0-1,0.1-1.5,0.1c-3.5,0.6-6.3,3.8-6.3,7.6v42.9c0,3.8,2.8,7,6.5,7.6
		c0.3,0.1,0.6,0.1,1,0.1h0.1c0.6,0.1,1.3,0.1,2,0.1s1.4,0,2.1-0.1c0.4-0.1,0.7-0.1,1-0.1c3.7-0.6,6.5-3.8,6.5-7.6V8.8
		c0-3.8-2.7-6.9-6.2-7.6c-0.5-0.1-1-0.1-1.5-0.1h-0.1C198.2,1,197.6,1,196.9,1L196.9,1z M228.7,1.4h28.8c15.9,0,28.8,12.9,28.8,28.8
		c0,15.9-12.9,28.8-28.8,28.8h-28.8v-0.4h1c1.6,0,2.9-1.3,2.9-2.9V4.7c0-1.6-1.3-2.9-2.9-2.9h-1C228.7,1.8,228.7,1.4,228.7,1.4z
		 M251.7,1.8v56.8h5.8c0.8,0,1.5,0,2.2-0.1c0.3,0,0.5-0.1,0.8-0.1c3.7-0.5,6.6-3.7,6.6-7.6V9.6c0-3.9-2.9-7.2-6.7-7.6
		c-0.3-0.1-0.4-0.1-0.6-0.1c-0.8-0.1-1.5-0.1-2.3-0.1C257.5,1.8,251.7,1.8,251.7,1.8z M320,0.6c16.4,0,29.6,13.2,29.6,29.6
		S336.4,59.8,320,59.8c-16.3,0-29.6-13.2-29.6-29.6S303.7,0.6,320,0.6z M320,1c-0.6,0-1.2,0-1.8,0.1c-0.5,0-1,0.1-1.5,0.1
		c-3.5,0.6-6.3,3.8-6.3,7.6v42.9c0,3.8,2.8,7,6.5,7.6c0.3,0.1,0.6,0.1,1,0.1h0.1c0.6,0.1,1.3,0.1,2,0.1s1.4,0,2.1-0.1
		c0.4-0.1,0.7-0.1,1-0.1c3.7-0.6,6.5-3.8,6.5-7.6V8.8c0-3.8-2.7-6.9-6.2-7.6c-0.5-0.1-1-0.1-1.5-0.1h-0.1C321.3,1,320.6,1,320,1z
		 M181,92.4v0.3h-0.7c-1.2,0-2.2,1-2.2,2.2V114h-0.3c-1.6-2-4.1-3.1-6.6-3.1c-1.4,0-2.8,0.4-4,1c0,0,0,0-0.1,0
		c-1.1,0.6-2.2,1.1-3.3,1.4c-2.3,0.8-4.7,1.2-7.2,1.2c-12.3,0-22.2-9.9-22.2-22.2s9.9-22.2,22.2-22.2c4.8,0,9.3,1.6,13,4.2
		c0.1,0.1,0.3,0.2,0.4,0.3c0.9,0.7,1.7,1.4,2.5,2.2c0.2,0.1,0.3,0.3,0.5,0.5l0.1,0.1l0.3,0.4c0.1,0.2,0.3,0.5,0.5,0.8
		c0,0.1,0.1,0.2,0.2,0.4c0.3,0.8,0.5,1.6,0.5,2.5c0,1.5-0.4,2.9-1.4,4.1c-1,1.1-2.5,1.7-4,1.7c-3.2,0-5.8-2.6-5.8-5.7c0,0,0,0,0,0
		c0-2.8,2-5.2,4.7-5.7c0.1,0,0.1,0,0.2,0c0.5-0.1,0.8-0.5,0.8-1.1c0-0.3-0.2-0.7-0.4-0.9c0,0-0.1,0-0.1-0.1
		c-2.8-1.8-5.9-2.9-9.2-3.3c-0.4,0-0.8,0-1.1-0.1h0c-0.4,0-0.9,0-1.3,0c-0.5,0-1,0-1.4,0c-0.4,0-0.8,0-1.1,0.1h0
		c-2.6,0.5-4.7,2.8-4.7,5.7v32.2c0,2.9,2.1,5.3,4.8,5.7c0.2,0,0.5,0,0.7,0h0c0.5,0,1,0,1.6,0c0.5,0,1,0,1.5,0c0.3,0,0.5,0,0.8,0
		c1.1-0.1,2.1-0.3,3.1-0.6c0.1,0,0.2,0,0.4-0.1c0.8-0.3,1.4-1.1,1.4-2V94.8c0-1.2-1-2.2-2.2-2.2h-0.7v-0.3
		C160.9,92.4,181,92.4,181,92.4z M206.3,70.2c12.3,0,22.2,9.9,22.2,22.2s-9.9,22.2-22.2,22.2c-12.2,0-22.2-9.9-22.2-22.2
		S194,70.2,206.3,70.2z M206.3,70.5c-0.4,0-0.9,0-1.3,0c-0.4,0-0.8,0-1.2,0.1c-2.6,0.5-4.7,2.8-4.7,5.7v32.2c0,2.9,2.1,5.2,4.9,5.7
		c0.2,0,0.5,0,0.7,0.1h0c0.5,0,1,0,1.5,0s1.1,0,1.6,0c0.3,0,0.5,0,0.8-0.1c2.8-0.4,4.9-2.8,4.8-5.7V76.3c0-2.8-2-5.2-4.7-5.7
		c-0.4,0-0.8-0.1-1.1-0.1h0C207.2,70.5,206.8,70.5,206.3,70.5z M253.8,70.2c12.3,0,22.2,9.9,22.2,22.2s-9.9,22.2-22.2,22.2
		c-12.2,0-22.2-9.9-22.2-22.2S241.6,70.2,253.8,70.2z M253.8,70.5c-0.4,0-0.9,0-1.3,0c-0.4,0-0.8,0-1.2,0.1
		c-2.6,0.5-4.7,2.8-4.7,5.7v32.2c0,2.9,2.1,5.2,4.9,5.7c0.2,0,0.5,0,0.7,0.1h0c0.5,0,1,0,1.5,0s1.1,0,1.6,0c0.3,0,0.5,0,0.8-0.1
		c2.8-0.4,4.9-2.8,4.8-5.7V76.3c0-2.8-2-5.2-4.7-5.7c-0.4,0-0.8-0.1-1.1-0.1h0C254.8,70.5,254.3,70.5,253.8,70.5L253.8,70.5z
		 M277.7,70.8h21.6c11.9,0,21.6,9.7,21.6,21.6c0,12-9.7,21.6-21.6,21.6h-21.6v-0.3h0.7c1.2,0,2.2-1,2.2-2.2V73.2
		c0-1.2-1-2.2-2.2-2.2h-0.7V70.8z M295,71.1v42.6h4.3c0.6,0,1.1,0,1.7,0c0.2,0,0.4,0,0.6,0c2.8-0.4,4.9-2.8,4.9-5.7v-31
		c0-2.9-2.2-5.4-5-5.7c-0.2,0-0.3,0-0.5,0c-0.6,0-1.2-0.1-1.7-0.1L295,71.1L295,71.1z"/>
	<g>
		<g class="st1">
			<path class="st2" d="M7.8,72.3c-7.6-23.8,8.1-32.6,17-32.9c2.9,1.8,5.2,5.1,10.1,4c-7.7-1.5-9.7-9.7-16.4-12.3
				c-3.1-1.2-7.6-0.6-9.5,1.2c3.1,0.4,5.5,1.7,7.4,3c-2.3-0.1-4.3,0.1-5.7,1c2.3,0.8,3.4,1.4,4.9,3.1C9.8,42.8-0.7,51.9,7.8,72.3
				 M31.2,37.9c2.5,0.6,6.6,2.9,5.1,5.5c0.6,0.4,1.1,0.8,1.7,1.6C39.3,41.3,35.2,38.4,31.2,37.9 M35.6,44.2c0.8,1.6,1.7,4,1.3,6
				c-1.1-0.1-2.4,0.1-3.4,0.6c2.4,0,4.1,2,3,4.5C40.3,53.1,39.6,47.1,35.6,44.2"/>
			<path class="st2" d="M21.8,57.9c0.9-0.4,2.1-0.7,3.1-0.8c5.1-0.4,9.7,3.4,12.1,5.5c2.4-1.2,3.6-5.4,2.1-8.2
				c0.3,2.1-0.7,4-1.9,4.8c-3.7-2.5-10-5.5-15.4-2.9c-4.5,2.2-7.8,7.3-8.8,12.3C14.5,64.3,17,60.2,21.8,57.9 M31,36.4
				c-0.1,0.7-0.6,0.9-1,1.2c2.4,0.3,4.5,1.1,5.8,2.7c0.3-3.7-2.9-7.1-6.3-4.8C30.4,35.4,31,35.8,31,36.4 M25.9,41.1
				c-0.9,1-2,2.1-1.8,3.9c0.4-1.6,1.6-2.6,3.9-2.6c-0.7-0.4-1.4-0.9-2-1.3L25.9,41.1 M30.5,47.4c0.9-0.7,1.6-1.8,1.5-3.5
				c-0.5-0.1-1.1-0.2-1.6-0.4C31,44.5,31.1,46.3,30.5,47.4 M28.4,42.6c-0.7,0-1.2,0.5-1.2,1.2c0,0,0,0,0,0c0,0.7,0.5,1.2,1.2,1.2
				c0.7,0,1.2-0.5,1.2-1.2S29.1,42.6,28.4,42.6"/>
			<path class="st2" d="M25.4,44.4c0-0.3,0-0.6,0.2-0.9c-0.4,0.4-0.7,1-0.7,1.6c0.1,1.3,1.4,2.4,3,2.3c1.2,0,2.2-0.7,2.5-1.6
				c-0.5,0.5-1.2,0.8-2.1,0.9C26.8,46.7,25.4,45.7,25.4,44.4 M46.9,79.2c-7.2-15.9-17.4-23.7-25.3-19.7c-6.3,3.2-9.7,10.9-5.7,23.3
				c-3-13.6,4-18.4,6.7-19.3c9.4-2.9,16.8,4.9,24.7,20.2c2,3.8,5.8,13.9,7.1,17.9C52.4,94.5,50.4,87,46.9,79.2 M11.6,87.2
				c2.9,2.9,4.9,4.6,7,5.9c-1.3-0.9-3.7-3.3-5.2-5c-6-6.7-10.5-13.9-12-22.6c-0.6-3.5-0.7-8.4,3-8.6c-3.9-1-5.2,2.4-4.4,8.4
				C1.1,72.9,5.6,81.3,11.6,87.2"/>
			<path class="st2" d="M22.5,41.1c-1.3,0.6-2.5,1.7-3.2,3.2c-1.5,3.2-0.5,6.8,2.4,8.1c2.1,1,4.6,0.4,6.4-1.3
				c-1.5,0.7-3.2,0.8-4.7,0.1c-2.8-1.3-3.9-5-2.3-8.1C21.4,42.3,21.9,41.6,22.5,41.1 M26.2,54.6c3.9-0.2,7.1,1.1,9.6,2.4
				c0.6,0.3,1.2,0.6,1.8,0.9c0.6-0.3,0.9-0.7,1.2-1.4c0.1-0.3,0.2-0.7,0.2-1c-0.3,0.5-0.6,0.8-0.9,1c-0.6-0.4-1.3-0.8-2-1.1
				c-4.2-1.9-10.6-2.7-14.9-0.2c-2.1,1.2-3.7,2.9-4.9,4.7C18.3,57.5,21.5,54.8,26.2,54.6 M19.7,79.7c-0.1-0.2-0.2-0.5-0.3-0.8
				c0,0.9,0.2,1.9,0.6,2.9c1,2.5,3,3.9,4.4,3.2c1.2-0.6,1.6-2.6,1-4.7c0.1,1.5-0.3,2.7-1.1,3.1C22.9,84.2,20.8,82.5,19.7,79.7
				 M27.4,77.2c-1.4,0.7-3.4-1.1-4.6-3.9c-0.1-0.2-0.2-0.5-0.3-0.8c0,0.9,0.2,1.9,0.6,2.9c1,2.5,3,3.9,4.4,3.2
				c1.2-0.6,1.6-2.6,1-4.7C28.6,75.6,28.2,76.8,27.4,77.2 M30.9,85.6c-1,0.5-2.6-0.8-3.4-2.9c-0.1-0.2-0.2-0.4-0.2-0.6
				c0,0.7,0.2,1.4,0.5,2.2c0.8,1.8,2.3,2.9,3.3,2.4c0.9-0.4,1.2-1.9,0.7-3.5C31.8,84.4,31.5,85.3,30.9,85.6 M22.9,100.7
				c0-2.4,1.9-4.3,4.2-4.3c0.2,0,0.2,0,0.3,0c0.6-0.3,1.5-0.4,2.1-0.4c-1.7-1.5-4.3-1.6-6.2-0.2c-0.8-0.6-1.9-1-2.9-1
				c-2.8,0-5,2.3-5,5.1c0,2.8,2.2,5.1,5,5.1c0.1,0,0.3,0,0.4,0c-2.1-0.2-3.8-2-3.8-4.3c0-2.4,1.9-4.3,4.2-4.3c0.4,0,0.8,0.1,1.2,0.2
				c-0.8,0.9-1.2,2.1-1.2,3.3c0,2.8,2.2,5.1,5,5.1c0.1,0,0.3,0,0.4,0C24.6,104.8,22.9,102.9,22.9,100.7 M14.7,97.1
				c-5.3,1.3-9.9,3.8-13.4,7.1c3.8-2.2,8.1-3.7,12.8-4.6c0,0,0-0.1,0-0.1C14.1,98.6,14.3,97.8,14.7,97.1"/>
			<path class="st2" d="M29.3,96.4l-0.2,0l-0.3,0c-0.5,0.1-0.9,0.2-1.4,0.3c0,0-0.4,0.2-0.3,0.1c-0.3,0.2-0.7,0.3-1,0.6
				c-0.2,0.2-0.5,0.3-0.7,0.5L25.4,98c-0.2,0.1-0.3,0.3-0.5,0.4l0,0.1c7.9,0.2,15.2,2.3,21.2,5.7c-4.1-3.9-9.6-6.7-15.9-7.9
				C29.9,96.3,29.6,96.4,29.3,96.4"/>
		</g>
		<path class="st2" d="M69.7,72.5c0-0.8,0.1-2,0.3-3.9c0.1-0.3,0.1-0.5,0.1-0.7c0-1.2-0.5-1.7-0.5-2.8c0.1-1.2,0.1-2.1,0.1-3.5
			c0-1.2,0.3-1.9,0.3-3.8c-0.1-1.8-0.1-2.6-0.2-4c-0.1-1.2-0.3-2.2-0.3-3.2c0-0.2,0-0.5,0-0.7c0.1-0.9,0.3-1.9,0.3-3
			c-0.1-1.2-0.1-1.5-0.1-1.9s0-0.7-0.1-1.5c-0.1-1.6,0.1-2.3-0.6-3.1c-0.7-0.7-1.7-1.6-1.7-2s0.4-0.5,1.4-0.5c0.7,0,2.1-0.2,3.1-0.2
			c0.8,0,1.5,0.3,2.4,0.3c0.3,0,0.6,0,0.8-0.1c0.4-0.2,1.3-0.3,2.5-0.3c0.4,0,0.9,0,2,0.1c0.9,0,1.4,0,1.9,0c0.3,0,0.5,0,0.8,0
			c1.1,0.2,2.5,0.4,3.5,1c1,0.7,2.2,1.6,2.2,3.7c0,1.6,0.2,3.3,0.2,4.7c0,0.5,0,0.9-0.1,1.3c-0.2,1.1-0.3,1.8-0.3,2.6
			c0,0.7,0.3,1.4,0.3,2.4c0,0.9-0.3,1.7-0.3,2.8c0,0.6,0.1,1.2,0.1,2.5c0,2,0.3,4,0.3,6.2c0,2.1-0.3,4-0.4,4.9c-0.1,1,0,2.8-0.7,3.9
			c-0.7,1.2-1.8,1.9-2.8,2.1c-1,0.2-2.2,0.4-3,0.4c-0.7,0-1-0.2-1.5-0.2c-1.2,0-2-0.1-2.7-0.1c-0.6,0-1.2,0.2-1.9,0.2
			c-0.7,0-1.2-0.3-1.8-0.3c-0.2,0-0.4,0-0.5,0.1c-1.2,0.2-2.2,0.2-2.8,0.2c-0.3,0-1.2,0.1-1.9,0.1c-0.5,0-0.8-0.1-0.8-0.2
			c0-0.2,0.3-0.5,1-1.2C69.5,74,69.7,73.3,69.7,72.5z M74.7,49.3c0,1.2,0.2,1.1,0.3,2.5c0,0.3,0,0.5,0,0.7c0,1-0.2,1.9-0.2,3
			c0,2.4,0.1,2.8,0.2,4.2c0,0.7-0.2,1.1-0.2,2.5c0,1,0.2,2,0.2,3c0,0.4,0,0.8-0.1,1.4c0,1.1,0.4,2.1,0.4,3.6c0,1.4,0.1,1.9,0.8,1.9
			c0.5-0.1,0.9-0.1,1.2-0.1c0.5,0,0.8,0.3,1.4,0.3c0.6,0,1.1-0.3,1.8-0.3c1,0,2-1.2,2.2-2.4c0.2-1.2,0.2-4.4,0.3-6
			c0-0.9-0.2-1.8-0.2-2.8c0-0.8,0.1-1.7,0.1-2.6c0-0.6-0.1-1.2-0.1-2.2c0-0.9,0.5-1.6,0.5-2.6c0-0.9-0.5-2.3-0.5-2.3
			s0.1-1.9,0.1-3.5v-0.8c-0.1-1.5-0.2-2.5-0.6-3.3c-0.4-0.7-2.2-1.1-3.8-1.1c-1.1,0.1-1.7,0.3-2.6,0.3c-0.9,0-0.6,1.1-0.7,1.8
			c-0.1,0.5-0.3,0.7-0.3,1.3c0,0.2,0,0.5,0.1,0.8c0.1,0.2,0.1,0.4,0.1,0.6C75.1,48,74.7,48.3,74.7,49.3z M92.3,48.1
			c0-1.1,0.3-4.1,0.3-4.9c0.2-2.6,0.8-3.8,1.9-4.4c0.4-0.2,1.6-0.7,3.3-0.7s3.8,0.1,4.6,0.1h2c0.3,0,0.6-0.1,0.9-0.1
			c0.5,0,1,0,1.4,0.1c0.8,0.1,4.4,0.8,4.4,4.7c0,2.9,0.3,5.4,0.3,6.9c0,0.6-0.1,1-0.2,1.2c-0.3,0.7-0.4,1.5-0.4,2.2
			c0.1,1.2,0.2,2.4,0.2,3.4c0,0.3,0.2,0.7,0.2,1.3c0,1.2,0,3.3,0,5.2c0,0.3,0,0.6,0,0.9c-0.2,2.2-0.3,4.6-0.4,5.4c0,0.1,0,0.3,0,0.4
			c0,0.6,0.3,1.2,0.3,2.2c0,1.5-1.3,4.4-3.4,4.4c-3.3-0.1-3.7-0.1-4.2-0.1c-0.3,0-0.7,0.1-1.1,0.2c-0.3,0.1-0.5,0.1-0.7,0.1
			c-1.9,0-3.2,0.1-5.4,0.1c-0.5,0-0.9,0-1.4-0.1c-0.8-0.2-2.6-1.1-2.6-4.3c0-2.4-0.2-3.8-0.2-4.7c0-0.9,0.4-1.6,0.4-2.6
			c0-0.5-0.2-1-0.2-1.8c0-0.9,0.2-2.1,0.2-3.3c0-0.3-0.1-0.6-0.1-0.9c-0.2-1.8-0.3-2-0.3-3.3c0-1.3,0.3-4.1,0.3-5
			C92.7,49.7,92.3,49.1,92.3,48.1L92.3,48.1z M98,46.9c0,0.6,0,1.2,0,1.9c0,1.7,0.2,2.9,0.2,4.6c0,1.4-0.2,1.8-0.2,2.3
			c0,0.7,0.4,1.2,0.4,2c0,0.7-0.3,1.3-0.4,2c-0.1,0.2-0.1,0.4-0.1,0.6c0,0.9,0.4,1.7,0.4,4.4c0.1,1.5,0.1,2.9,0.1,3.9v1.3
			c0,1.3,0.8,1.2,1.7,1.5c0.4,0.2,0.7,0.2,1.1,0.2c0.6,0,1.4-0.2,2.2-0.3c1.5-0.2,1.8-0.1,2-0.7c0.3-0.6,0.2-1.8,0.3-4
			c0.1-2.2,0.1-4.6,0.2-5.9c0-1.2,0-1.7,0-2.2c0-0.7,0.4-1.2,0.4-2c0-0.3-0.1-0.6-0.2-1.1c-0.3-1-0.3-2.5-0.3-4v-1.3
			c0-1.3,0.1-2.9,0.1-4.1c0-0.6,0-1.2-0.1-1.6c-0.2-1.2-1.1-1.8-2-1.8c-0.7,0-2,0.2-2.8,0.3c-0.5,0-1,0-1.4,0h-0.9
			C98.3,43.3,98,44.1,98,46.9L98,46.9z M116.7,72.5c0-0.8,0.1-2,0.3-3.9c0.1-0.3,0.1-0.5,0.1-0.7c0-1.2-0.5-1.7-0.5-2.8
			c0.1-1.2,0.1-2.1,0.1-3.5c0-1.2,0.3-1.9,0.3-3.8c-0.1-1.8-0.1-2.6-0.2-4c-0.1-1.2-0.3-2.2-0.3-3.2c0-0.2,0.1-0.5,0.1-0.7
			c0.1-0.9,0.3-1.9,0.3-3c0-1.2,0-1.5,0-1.9s0-0.7-0.1-1.5c-0.1-1.6,0.1-2.3-0.6-3.1c-0.7-0.7-1.7-1.6-1.7-2s0.4-0.5,1.4-0.5
			c0.7,0,2.1-0.2,3.1-0.2c0.8,0,1.5,0.3,2.4,0.3c0.3,0,0.6,0,0.8-0.1c0.4-0.2,1.3-0.3,2.4-0.3c0.4,0,0.9,0,2,0.1c0.9,0,1.4,0,1.9,0
			c0.3,0,0.5,0,0.8,0c1.1,0.2,2.5,0.4,3.5,1c1,0.7,2.2,1.6,2.2,3.7c0,1.6,0.2,3.3,0.2,4.7c0,0.5,0,0.9-0.1,1.3
			c-0.2,1.1-0.3,1.8-0.3,2.6c0,0.7,0.3,1.4,0.3,2.4c0,0.9-0.3,1.7-0.3,2.8c0,0.6,0.1,1.2,0.1,2.5c0,2,0.3,4,0.3,6.2
			c0,2.1-0.3,4-0.4,4.9c-0.1,1,0.1,2.8-0.7,3.9c-0.7,1.2-1.8,1.9-2.8,2.1c-1,0.2-2.2,0.4-3,0.4c-0.7,0-1-0.2-1.5-0.2
			c-1.2,0-2-0.1-2.7-0.1c-0.6,0-1.2,0.2-1.9,0.2c-0.7,0-1.2-0.3-1.8-0.3c-0.2,0-0.4,0-0.5,0.1c-1.2,0.2-2.2,0.2-2.8,0.2
			c-0.3,0-1.2,0.1-1.9,0.1c-0.5,0-0.8-0.1-0.8-0.2c0-0.2,0.3-0.5,1-1.2C116.5,74,116.7,73.3,116.7,72.5z M121.8,49.3
			c0,1.2,0.2,1.1,0.3,2.5c0,0.3,0.1,0.5,0.1,0.7c0,1-0.2,1.9-0.2,3c0,2.4,0.1,2.8,0.2,4.2c0,0.7-0.2,1.1-0.2,2.5c0,1,0.2,2,0.2,3
			c0,0.4,0,0.8,0,1.4c0,1.1,0.4,2.1,0.4,3.6c0,1.4,0.1,1.9,0.8,1.9c0.5-0.1,0.9-0.1,1.2-0.1c0.5,0,0.8,0.3,1.4,0.3
			c0.6,0,1.1-0.3,1.8-0.3c1,0,2-1.2,2.2-2.4c0.2-1.2,0.2-4.4,0.3-6c0-0.9-0.2-1.8-0.2-2.8c0-0.8,0.1-1.7,0.1-2.6
			c0-0.6-0.1-1.2-0.1-2.2c0-0.9,0.5-1.6,0.5-2.6c0-0.9-0.5-2.3-0.5-2.3s0.1-1.9,0.1-3.5v-0.8c0-1.5-0.2-2.5-0.6-3.3
			c-0.4-0.7-2.2-1.1-3.8-1.1c-1.1,0.1-1.7,0.3-2.6,0.3c-0.9,0-0.6,1.1-0.7,1.8c0,0.5-0.3,0.7-0.3,1.3c0,0.2,0.1,0.5,0.1,0.8
			c0.1,0.2,0.1,0.4,0.1,0.6C122.1,48,121.8,48.3,121.8,49.3z M139.3,48.1c0-1.1,0.3-4.1,0.3-4.9c0.2-2.6,0.8-3.8,1.9-4.4
			c0.4-0.2,1.6-0.7,3.3-0.7c1.7,0,3.8,0.1,4.6,0.1h2c0.3,0,0.6-0.1,0.9-0.1c0.5,0,1,0,1.4,0.1c0.8,0.1,4.4,0.8,4.4,4.7
			c0,2.9,0.3,5.4,0.3,6.9c0,0.6-0.1,1-0.2,1.2c-0.3,0.7-0.4,1.5-0.4,2.2c0,1.2,0.2,2.4,0.2,3.4c0,0.3,0.2,0.7,0.2,1.3
			c0,1.2,0.1,3.3,0.1,5.2c0,0.3-0.1,0.6-0.1,0.9c-0.2,2.2-0.3,4.6-0.4,5.4c-0.1,0.1-0.1,0.3-0.1,0.4c0,0.6,0.3,1.2,0.3,2.2
			c0,1.5-1.3,4.4-3.4,4.4c-3.3-0.1-3.7-0.1-4.2-0.1c-0.3,0-0.7,0.1-1.1,0.2c-0.3,0.1-0.5,0.1-0.7,0.1c-1.9,0-3.2,0.1-5.4,0.1
			c-0.5,0-0.9,0-1.4-0.1c-0.8-0.2-2.6-1.1-2.6-4.3c0-2.4-0.2-3.8-0.2-4.7c0-0.9,0.4-1.6,0.4-2.6c0-0.5-0.2-1-0.2-1.8
			c0-0.9,0.2-2.1,0.2-3.3c0-0.3,0-0.6,0-0.9c-0.2-1.8-0.3-2-0.3-3.3c0-1.3,0.3-4.1,0.3-5C139.8,49.7,139.3,49.1,139.3,48.1
			L139.3,48.1z M145,46.9c0,0.6,0,1.2,0,1.9c0,1.7,0.2,2.9,0.2,4.6c0,1.4-0.2,1.8-0.2,2.3c0,0.7,0.4,1.2,0.4,2c0,0.7-0.3,1.3-0.4,2
			c-0.1,0.2-0.1,0.4-0.1,0.6c0,0.9,0.4,1.7,0.4,4.4c0,1.5,0,2.9,0,3.9v1.3c0,1.3,0.8,1.2,1.7,1.5c0.4,0.2,0.7,0.2,1.1,0.2
			c0.6,0,1.4-0.2,2.2-0.3c1.5-0.2,1.8-0.1,2-0.7c0.3-0.6,0.2-1.8,0.3-4c0.1-2.2,0.1-4.6,0.2-5.9c0-1.2-0.1-1.7-0.1-2.2
			c0-0.7,0.4-1.2,0.4-2c0-0.3-0.1-0.6-0.2-1.1c-0.3-1-0.3-2.5-0.3-4v-1.3c0-1.3,0.1-2.9,0.1-4.1c0-0.6,0-1.2-0.1-1.6
			c-0.2-1.2-1.1-1.8-2-1.8c-0.7,0-2,0.2-2.8,0.3c-0.5,0-1,0-1.4,0h-0.9C145.4,43.3,145,44.1,145,46.9L145,46.9z M177.2,49.4
			c-0.3,0.3-0.4,0.4-1,0.4c-0.3,0-0.5-0.6-0.5-1.4c0-0.3,0-0.5,0.1-0.8c0.1-0.5,0.1-0.9,0.1-1.3c0-0.9-0.1-1.7-0.1-2.7
			c0-1.1-0.6-1.1-1.7-1.1c-1.1,0-2.3,0.1-3.9,0.1c-1.6,0-1.4,1-1.6,2c-0.1,0.2-0.1,0.3-0.1,0.5c0,0.7,0.3,1.3,0.3,2.1
			c0,0.2,0,0.4-0.1,0.6c-0.2,1.2-0.2,2.7-0.4,4.3c0,0.3-0.1,0.5-0.1,0.7c0,1,0.3,1.4,0.3,2.7c0,1.1-0.1,1.9-0.1,2.8
			c0,0.4,0,0.8,0.1,1.2c0,1.5-0.2,2.2-0.3,3.2c0,0.8,0.2,2.1,0.3,3.2c0.1,1.2,0.2,2.7,0.2,4.3c0,1.6,0.7,1.9,1.6,1.9
			c0.7,0,1.7-0.3,2.6-0.3c0.4,0,0.8,0.2,1.4,0.2c0.7,0,1.2-0.5,1.8-0.5c0.5,0,0.5-1,0.5-2.2c0-0.4,0-0.8,0.1-1.1
			c0.1-0.6,0.2-1.2,0.2-2.1c0-0.9-0.1-1.7-0.1-2.2c-0.1-0.6-0.1-1.3-0.2-1.9c-0.1,0-0.1-0.1-0.2-0.1c-0.5,0-1.9,1.5-2.4,1.5
			c-0.5,0-0.5-0.9-0.5-2v-1.5c0-0.8,0.5-1.5,1-1.8c0.7-0.3,2.1-0.8,2.9-1.2c1.3-0.7,2.2-1.4,3.7-1.4c0.9,0,0.7,0.7,0.7,1.5
			c-0.1,1.5-0.2,3.1-0.2,4.6c0,1.3,0.3,1.2,0.3,2v2.5c0,1.1,0,2.1-0.1,2.6c-0.1,0.4-0.1,0.6-0.1,0.8c0,0.5,0.1,1.1,0.1,3.1
			c0,2.9-3.4,3.7-4,3.8c-0.8,0-1.7-0.1-2.4-0.1c-0.6,0-1.1,0.3-2.4,0.3c-1.1,0-2.4-0.1-7.1-0.1c-2.3,0-2.6-2.1-2.6-2.4
			c0-0.2-0.3-0.9-0.3-1.7c0-0.6,0.3-1.1,0.3-1.8c0-0.8-0.3-1.8-0.3-3.1v-1.1c0-1.2-0.3-1.6-0.3-3.4c0-0.4,0-0.9,0.1-1.4
			c0.2-3.4,0.2-4.6,0.2-5.7c0-1.1-0.2-2.8-0.3-3.8c0-0.2-0.1-0.4-0.1-0.6c0-0.9,0.5-1.6,0.5-2.7c0-0.4-0.1-0.9-0.1-1.7
			c-0.1-0.4-0.1-0.9-0.1-1.5c0-1.2,0.1-2.8,0.1-4.1c0-2,2.9-3.4,4.3-3.5c1.4-0.1,4.2-0.1,4.6-0.1c0.4,0,1.2,0.2,1.9,0.2
			c0.2,0,0.4-0.1,0.6-0.1c0.6-0.1,1.2-0.2,1.9-0.2c0.3,0,0.6,0.1,0.9,0.1c0.5,0.1,1.5,0.2,2.3,0.2c1.2,0,1.8,1.7,1.8,2.8
			c0,0.4-0.2,0.7-0.2,1.3c0,0.5,0.1,1,0.1,2c0,0.7,0.2,1.5,0.2,2.2c0,0.8-1.9,1-2.2,1.7C178.9,48.9,177.5,49.1,177.2,49.4
			L177.2,49.4z M185.9,48.1c0-1.1,0.3-4.1,0.3-4.9c0.2-2.6,0.8-3.8,1.9-4.4c0.4-0.2,1.6-0.7,3.3-0.7c1.7,0,3.8,0.1,4.6,0.1h2
			c0.3,0,0.6-0.1,0.9-0.1c0.5,0,1,0,1.4,0.1c0.8,0.1,4.4,0.8,4.4,4.7c0,2.9,0.3,5.4,0.3,6.9c0,0.6-0.1,1-0.2,1.2
			c-0.3,0.7-0.4,1.5-0.4,2.2c0.1,1.2,0.2,2.4,0.2,3.4c0,0.3,0.2,0.7,0.2,1.3c0,1.2,0.1,3.3,0.1,5.2c0,0.3-0.1,0.6-0.1,0.9
			c-0.2,2.2-0.3,4.6-0.4,5.4c-0.1,0.1-0.1,0.3-0.1,0.4c0,0.6,0.3,1.2,0.3,2.2c0,1.5-1.3,4.4-3.4,4.4c-3.3-0.1-3.7-0.1-4.2-0.1
			c-0.3,0-0.7,0.1-1.1,0.2c-0.3,0.1-0.5,0.1-0.7,0.1c-1.9,0-3.2,0.1-5.4,0.1c-0.5,0-0.9,0-1.4-0.1c-0.8-0.2-2.6-1.1-2.6-4.3
			c0-2.4-0.2-3.8-0.2-4.7c0-0.9,0.4-1.6,0.4-2.6c0-0.5-0.2-1-0.2-1.8c0-0.9,0.2-2.1,0.2-3.3c0-0.3-0.1-0.6-0.1-0.9
			c-0.2-1.8-0.3-2-0.3-3.3c0-1.3,0.3-4.1,0.3-5C186.3,49.7,185.9,49.1,185.9,48.1L185.9,48.1z M191.6,46.9c0,0.6,0,1.2-0.1,1.9
			c0,1.7,0.2,2.9,0.2,4.6c0,1.4-0.2,1.8-0.2,2.3c0,0.7,0.4,1.2,0.4,2c0,0.7-0.3,1.3-0.4,2c-0.1,0.2-0.1,0.4-0.1,0.6
			c0,0.9,0.4,1.7,0.4,4.4c0.1,1.5,0.1,2.9,0.1,3.9v1.3c0,1.3,0.8,1.2,1.7,1.5c0.4,0.2,0.7,0.2,1.1,0.2c0.6,0,1.4-0.2,2.2-0.3
			c1.5-0.2,1.8-0.1,2-0.7c0.3-0.6,0.2-1.8,0.3-4c0.1-2.2,0.1-4.6,0.2-5.9c0-1.2-0.1-1.7-0.1-2.2c0-0.7,0.4-1.2,0.4-2
			c0-0.3-0.1-0.6-0.2-1.1c-0.3-1-0.3-2.5-0.3-4v-1.3c0-1.3,0.1-2.9,0.1-4.1c0-0.6,0-1.2-0.1-1.6c-0.2-1.2-1.1-1.8-2-1.8
			c-0.7,0-2,0.2-2.8,0.3c-0.5,0-1,0-1.4,0h-0.9C192,43.3,191.6,44.1,191.6,46.9L191.6,46.9z M208.7,48.1c0-1.1,0.3-4.1,0.3-4.9
			c0.2-2.6,0.8-3.8,1.9-4.4c0.4-0.2,1.6-0.7,3.3-0.7c1.7,0,3.8,0.1,4.6,0.1h2c0.3,0,0.6-0.1,0.9-0.1c0.5,0,1,0,1.4,0.1
			c0.8,0.1,4.4,0.8,4.4,4.7c0,2.9,0.3,5.4,0.3,6.9c0,0.6-0.1,1-0.2,1.2c-0.3,0.7-0.4,1.5-0.4,2.2c0.1,1.2,0.2,2.4,0.2,3.4
			c0,0.3,0.2,0.7,0.2,1.3c0,1.2,0.1,3.3,0.1,5.2c0,0.3-0.1,0.6-0.1,0.9c-0.2,2.2-0.3,4.6-0.4,5.4c-0.1,0.1-0.1,0.3-0.1,0.4
			c0,0.6,0.3,1.2,0.3,2.2c0,1.5-1.3,4.4-3.4,4.4c-3.3-0.1-3.7-0.1-4.2-0.1c-0.3,0-0.7,0.1-1.1,0.2c-0.3,0.1-0.5,0.1-0.7,0.1
			c-1.9,0-3.2,0.1-5.4,0.1c-0.5,0-0.9,0-1.4-0.1c-0.8-0.2-2.6-1.1-2.6-4.3c0-2.4-0.2-3.8-0.2-4.7c0-0.9,0.4-1.6,0.4-2.6
			c0-0.5-0.2-1-0.2-1.8c0-0.9,0.2-2.1,0.2-3.3c0-0.3-0.1-0.6-0.1-0.9c-0.2-1.8-0.3-2-0.3-3.3c0-1.3,0.3-4.1,0.3-5
			C209.1,49.7,208.7,49.1,208.7,48.1L208.7,48.1z M214.4,46.9c0,0.6,0,1.2-0.1,1.9c0,1.7,0.2,2.9,0.2,4.6c0,1.4-0.2,1.8-0.2,2.3
			c0,0.7,0.4,1.2,0.4,2c0,0.7-0.3,1.3-0.4,2c-0.1,0.2-0.1,0.4-0.1,0.6c0,0.9,0.4,1.7,0.4,4.4c0.1,1.5,0.1,2.9,0.1,3.9v1.3
			c0,1.3,0.8,1.2,1.7,1.5c0.4,0.2,0.7,0.2,1.1,0.2c0.6,0,1.4-0.2,2.2-0.3c1.5-0.2,1.8-0.1,2-0.7c0.3-0.6,0.2-1.8,0.3-4
			c0.1-2.2,0.1-4.6,0.2-5.9c0-1.2-0.1-1.7-0.1-2.2c0-0.7,0.4-1.2,0.4-2c0-0.3-0.1-0.6-0.2-1.1c-0.3-1-0.3-2.5-0.3-4v-1.3
			c0-1.3,0.1-2.9,0.1-4.1c0-0.6,0-1.2-0.1-1.6c-0.2-1.2-1.1-1.8-2-1.8c-0.7,0-2,0.2-2.8,0.3c-0.5,0-1,0-1.4,0H215
			C214.7,43.3,214.4,44.1,214.4,46.9L214.4,46.9z M233.1,72.5c0-0.8,0.1-2,0.3-3.9c0.1-0.3,0.1-0.5,0.1-0.7c0-1.2-0.5-1.7-0.5-2.8
			c0.1-1.2,0.1-2.1,0.1-3.5c0-1.2,0.3-1.9,0.3-3.8c-0.1-1.8-0.1-2.6-0.2-4c-0.1-1.2-0.3-2.2-0.3-3.2c0-0.2,0.1-0.5,0.1-0.7
			c0.1-0.9,0.3-1.9,0.3-3c-0.1-1.2-0.1-1.5-0.1-1.9s0-0.7-0.1-1.5c-0.1-1.6,0.1-2.3-0.6-3.1c-0.7-0.7-1.7-1.6-1.7-2s0.4-0.5,1.4-0.5
			c0.7,0,2.1-0.2,3.1-0.2c0.8,0,1.5,0.3,2.4,0.3c0.3,0,0.6,0,0.8-0.1c0.4-0.2,1.3-0.3,2.4-0.3c0.4,0,0.9,0,2,0.1c0.9,0,1.4,0,1.9,0
			c0.3,0,0.5,0,0.8,0c1.1,0.2,2.5,0.4,3.5,1c1,0.7,2.2,1.6,2.2,3.7c0,1.6,0.2,3.3,0.2,4.7c0,0.5,0,0.9-0.1,1.3
			c-0.2,1.1-0.3,1.8-0.3,2.6c0,0.7,0.3,1.4,0.3,2.4c0,0.9-0.3,1.7-0.3,2.8c0,0.6,0.1,1.2,0.1,2.5c0,2,0.3,4,0.3,6.2
			c0,2.1-0.3,4-0.4,4.9c-0.1,1,0.1,2.8-0.7,3.9c-0.7,1.2-1.8,1.9-2.8,2.1c-1,0.2-2.2,0.4-3,0.4c-0.7,0-1-0.2-1.5-0.2
			c-1.2,0-2-0.1-2.7-0.1c-0.6,0-1.2,0.2-1.9,0.2c-0.7,0-1.2-0.3-1.8-0.3c-0.2,0-0.4,0-0.5,0.1c-1.2,0.2-2.2,0.2-2.8,0.2
			c-0.3,0-1.2,0.1-1.9,0.1c-0.5,0-0.8-0.1-0.8-0.2c0-0.2,0.3-0.5,1-1.2C232.9,74,233.1,73.3,233.1,72.5L233.1,72.5z M238.2,49.3
			c0,1.2,0.2,1.1,0.3,2.5c0,0.3,0.1,0.5,0.1,0.7c0,1-0.2,1.9-0.2,3c0,2.4,0.1,2.8,0.2,4.2c0,0.7-0.2,1.1-0.2,2.5c0,1,0.2,2,0.2,3
			c0,0.4,0,0.8-0.1,1.4c0,1.1,0.4,2.1,0.4,3.6c0,1.4,0.1,1.9,0.8,1.9c0.5-0.1,0.9-0.1,1.2-0.1c0.5,0,0.8,0.3,1.4,0.3
			c0.6,0,1.1-0.3,1.8-0.3c1,0,2-1.2,2.2-2.4c0.2-1.2,0.2-4.4,0.3-6c0-0.9-0.2-1.8-0.2-2.8c0-0.8,0.1-1.7,0.1-2.6
			c0-0.6-0.1-1.2-0.1-2.2c0-0.9,0.5-1.6,0.5-2.6c0-0.9-0.5-2.3-0.5-2.3s0.1-1.9,0.1-3.5v-0.8c-0.1-1.5-0.2-2.5-0.6-3.3
			c-0.4-0.7-2.2-1.1-3.8-1.1c-1.1,0.1-1.7,0.3-2.6,0.3c-0.9,0-0.6,1.1-0.7,1.8c-0.1,0.5-0.3,0.7-0.3,1.3c0,0.2,0.1,0.5,0.1,0.8
			c0.1,0.2,0.1,0.4,0.1,0.6C238.5,48,238.2,48.3,238.2,49.3L238.2,49.3z M71.5,91.7L71.5,91.7l2.5-5.7h1.7v7.5h-1.4v-5.2l0,0
			L72,93.5H71l-2.3-5.3l0,0v5.3h-1.4v-7.5h1.8L71.5,91.7z M77.6,89.7c0-1.1,0.3-2,0.9-2.7c0.6-0.7,1.4-1.1,2.4-1.1
			c1,0,1.9,0.4,2.5,1.1c0.6,0.7,0.9,1.6,0.9,2.7v0.2c0,1.1-0.3,2-0.9,2.7c-0.6,0.7-1.4,1.1-2.4,1.1c-1,0-1.8-0.4-2.4-1.1
			c-0.6-0.7-0.9-1.6-0.9-2.7L77.6,89.7L77.6,89.7z M79,89.9c0,0.8,0.2,1.4,0.5,2c0.3,0.5,0.8,0.8,1.5,0.8c0.7,0,1.1-0.3,1.5-0.8
			c0.3-0.5,0.5-1.2,0.5-2v-0.2c0-0.8-0.2-1.4-0.5-2c-0.3-0.5-0.8-0.8-1.5-0.8c-0.7,0-1.1,0.3-1.5,0.8c-0.3,0.5-0.5,1.2-0.5,2V89.9z
			 M92,86.1v7.5h-1.4v-6.4h-2.5v2.1c0,1.5-0.2,2.6-0.6,3.2s-1.1,1-2,1h-0.4l0-1.2l0.3,0c0.5,0,0.8-0.2,1-0.7
			c0.2-0.5,0.3-1.3,0.3-2.4v-3.2C86.8,86.1,92,86.1,92,86.1z M93.6,89.7c0-1.1,0.3-2,0.9-2.7c0.6-0.7,1.4-1.1,2.4-1.1
			c1,0,1.9,0.4,2.5,1.1s0.9,1.6,0.9,2.7v0.2c0,1.1-0.3,2-0.9,2.7c-0.6,0.7-1.4,1.1-2.4,1.1c-1,0-1.8-0.4-2.4-1.1
			c-0.6-0.7-0.9-1.6-0.9-2.7L93.6,89.7L93.6,89.7z M95,89.9c0,0.8,0.2,1.4,0.5,2c0.3,0.5,0.8,0.8,1.5,0.8c0.6,0,1.1-0.3,1.5-0.8
			c0.3-0.5,0.5-1.2,0.5-2v-0.2c0-0.8-0.2-1.4-0.5-2c-0.3-0.5-0.8-0.8-1.5-0.8c-0.6,0-1.1,0.3-1.5,0.8c-0.3,0.5-0.5,1.2-0.5,2V89.9z
			 M102.3,92.5c0.4,0,0.6-0.3,0.8-0.9s0.3-1.5,0.4-2.7l0.2-2.8h5v6.4h1V96h-1.4v-2.5h-5.3V96h-1.4v-3.5
			C101.6,92.5,102.3,92.5,102.3,92.5z M104.8,88.9c-0.1,0.9-0.1,1.6-0.2,2.2c-0.1,0.6-0.2,1-0.4,1.4h3.1v-5.2h-2.3L104.8,88.9z
			 M114.2,93.7c-1.1,0-1.9-0.3-2.5-1c-0.6-0.7-0.9-1.6-0.9-2.7v-0.3c0-1.1,0.3-2,0.9-2.7c0.6-0.7,1.4-1.1,2.3-1.1
			c1,0,1.7,0.3,2.2,0.9c0.5,0.6,0.7,1.4,0.7,2.5V90h-4.8l0,0c0,0.8,0.2,1.4,0.5,1.8c0.3,0.5,0.8,0.7,1.5,0.7c0.5,0,0.9-0.1,1.2-0.2
			c0.3-0.1,0.6-0.3,0.9-0.5l0.5,0.9c-0.3,0.3-0.6,0.5-1.1,0.7C115.4,93.6,114.9,93.7,114.2,93.7z M114,87c-0.5,0-0.9,0.2-1.2,0.5
			c-0.3,0.4-0.5,0.8-0.6,1.4l0,0h3.4v-0.1c0-0.5-0.1-1-0.4-1.3C115,87.2,114.6,87,114,87z M123.8,90.3h-0.4v3.2h-1.4v-3.2h-0.4
			l-2.1,3.2h-1.7l2.8-3.9l-2.6-3.5h1.6l2,3.1h0.4v-3.1h1.4v3.1h0.4l2-3.1h1.6l-2.6,3.5l2.8,3.9H126L123.8,90.3z M135,93.5h-1.4v-3.2
			h-3.3v3.2H129v-7.5h1.4v3.2h3.3v-3.2h1.4L135,93.5L135,93.5z M141.7,93.5c0-0.2-0.1-0.4-0.1-0.6c0-0.2,0-0.3,0-0.5
			c-0.3,0.4-0.6,0.7-1,0.9c-0.4,0.2-0.9,0.4-1.3,0.4c-0.8,0-1.4-0.2-1.8-0.6s-0.6-0.9-0.6-1.6c0-0.7,0.3-1.3,0.9-1.7
			c0.6-0.4,1.4-0.6,2.4-0.6h1.5v-0.7c0-0.4-0.1-0.8-0.4-1c-0.3-0.3-0.6-0.4-1.1-0.4c-0.4,0-0.8,0.1-1.1,0.3
			c-0.3,0.2-0.4,0.5-0.4,0.8l-1.3,0l0,0c0-0.5,0.2-1,0.8-1.5c0.5-0.5,1.2-0.7,2.1-0.7c0.8,0,1.5,0.2,2,0.6s0.8,1.1,0.8,1.9V92
			c0,0.3,0,0.5,0,0.8c0,0.2,0.1,0.5,0.2,0.7L141.7,93.5L141.7,93.5z M139.5,92.5c0.5,0,0.9-0.1,1.3-0.4c0.4-0.3,0.7-0.5,0.8-0.9
			v-1.2H140c-0.5,0-1,0.1-1.3,0.4c-0.3,0.3-0.5,0.6-0.5,1c0,0.3,0.1,0.6,0.3,0.8C138.7,92.4,139.1,92.5,139.5,92.5z M151,86.1v7.5
			h-1.4v-2.9h-1.8l-1.8,2.9h-1.5l1.9-3.1c-0.5-0.2-0.8-0.4-1.1-0.8c-0.3-0.4-0.4-0.8-0.4-1.3c0-0.7,0.3-1.2,0.8-1.6
			c0.5-0.4,1.2-0.6,2.1-0.6H151z M146.4,88.4c0,0.3,0.1,0.6,0.3,0.8c0.2,0.2,0.6,0.4,1,0.4h1.9v-2.4h-1.8c-0.5,0-0.9,0.1-1.1,0.4
			C146.5,87.7,146.4,88,146.4,88.4L146.4,88.4z M156.5,89.7c0-1.1,0.3-2,0.9-2.7c0.6-0.7,1.4-1.1,2.4-1.1c1,0,1.9,0.4,2.5,1.1
			c0.6,0.7,0.9,1.6,0.9,2.7v0.2c0,1.1-0.3,2-0.9,2.7c-0.6,0.7-1.4,1.1-2.4,1.1c-1,0-1.8-0.4-2.4-1.1c-0.6-0.7-0.9-1.6-0.9-2.7
			L156.5,89.7L156.5,89.7z M157.9,89.9c0,0.8,0.2,1.4,0.5,2c0.3,0.5,0.8,0.8,1.5,0.8c0.6,0,1.1-0.3,1.5-0.8c0.3-0.5,0.5-1.2,0.5-2
			v-0.2c0-0.8-0.2-1.4-0.5-2c-0.3-0.5-0.8-0.8-1.5-0.8c-0.7,0-1.1,0.3-1.5,0.8c-0.3,0.5-0.5,1.2-0.5,2
			C157.9,89.7,157.9,89.9,157.9,89.9z M165.2,92.5c0.4,0,0.6-0.3,0.8-0.9c0.2-0.6,0.3-1.5,0.4-2.7l0.2-2.8h5v6.4h1V96h-1.4v-2.5
			h-5.3V96h-1.4v-3.5L165.2,92.5L165.2,92.5z M167.7,88.9c-0.1,0.9-0.1,1.6-0.2,2.2c-0.1,0.6-0.2,1-0.4,1.4h3.1v-5.2h-2.3
			L167.7,88.9L167.7,88.9z M177.1,93.7c-1.1,0-1.9-0.3-2.5-1c-0.6-0.7-0.9-1.6-0.9-2.7v-0.3c0-1.1,0.3-2,0.9-2.7
			c0.6-0.7,1.4-1.1,2.3-1.1c1,0,1.7,0.3,2.2,0.9c0.5,0.6,0.7,1.4,0.7,2.5V90h-4.8l0,0c0,0.8,0.2,1.4,0.5,1.8
			c0.3,0.5,0.8,0.7,1.5,0.7c0.5,0,0.9-0.1,1.2-0.2s0.6-0.3,0.9-0.5l0.5,0.9c-0.3,0.3-0.6,0.5-1.1,0.7S177.8,93.7,177.1,93.7z
			 M176.9,87c-0.5,0-0.9,0.2-1.2,0.5c-0.3,0.4-0.5,0.8-0.6,1.4l0,0h3.4v-0.1c0-0.5-0.1-1-0.4-1.3C177.9,87.2,177.5,87,176.9,87z
			 M186.7,90.3h-0.4v3.2H185v-3.2h-0.4l-2.1,3.2h-1.7l2.8-3.9l-2.6-3.5h1.6l2,3.1h0.4v-3.1h1.4v3.1h0.4l2-3.1h1.6l-2.6,3.5l2.8,3.9
			h-1.7L186.7,90.3L186.7,90.3z M192.1,92.5c0.4,0,0.6-0.3,0.8-0.9c0.2-0.6,0.3-1.5,0.4-2.7l0.2-2.8h5v6.4h1V96H198v-2.5h-5.3V96
			h-1.4v-3.5L192.1,92.5L192.1,92.5z M194.6,88.9c-0.1,0.9-0.1,1.6-0.2,2.2c-0.1,0.6-0.2,1-0.4,1.4h3.1v-5.2h-2.3L194.6,88.9
			L194.6,88.9z M205.5,93.5c0-0.2-0.1-0.4-0.1-0.6c0-0.2,0-0.3,0-0.5c-0.3,0.4-0.6,0.7-1,0.9c-0.4,0.2-0.9,0.4-1.3,0.4
			c-0.8,0-1.4-0.2-1.8-0.6s-0.6-0.9-0.6-1.6c0-0.7,0.3-1.3,0.9-1.7c0.6-0.4,1.4-0.6,2.3-0.6h1.5v-0.7c0-0.4-0.1-0.8-0.4-1
			c-0.3-0.3-0.6-0.4-1.1-0.4c-0.4,0-0.8,0.1-1.1,0.3c-0.3,0.2-0.4,0.5-0.4,0.8l-1.3,0l0,0c0-0.5,0.2-1,0.8-1.5
			c0.5-0.5,1.2-0.7,2.1-0.7c0.8,0,1.5,0.2,2,0.6s0.8,1.1,0.8,1.9V92c0,0.3,0,0.5,0,0.8c0,0.2,0.1,0.5,0.2,0.7L205.5,93.5L205.5,93.5
			z M203.3,92.5c0.5,0,0.9-0.1,1.3-0.4c0.4-0.3,0.7-0.5,0.8-0.9v-1.2h-1.5c-0.5,0-1,0.1-1.3,0.4c-0.3,0.3-0.5,0.6-0.5,1
			c0,0.3,0.1,0.6,0.3,0.8C202.6,92.4,202.9,92.5,203.3,92.5z M212.2,89.7c0-1.1,0.3-2,0.9-2.7c0.6-0.7,1.4-1.1,2.4-1.1
			c1,0,1.9,0.4,2.5,1.1c0.6,0.7,0.9,1.6,0.9,2.7v0.2c0,1.1-0.3,2-0.9,2.7c-0.6,0.7-1.4,1.1-2.4,1.1c-1,0-1.8-0.4-2.4-1.1
			c-0.6-0.7-0.9-1.6-0.9-2.7L212.2,89.7L212.2,89.7z M213.5,89.9c0,0.8,0.2,1.4,0.5,2c0.3,0.5,0.8,0.8,1.5,0.8
			c0.6,0,1.1-0.3,1.5-0.8c0.3-0.5,0.5-1.2,0.5-2v-0.2c0-0.8-0.2-1.4-0.5-2c-0.3-0.5-0.8-0.8-1.5-0.8c-0.6,0-1.1,0.3-1.5,0.8
			c-0.3,0.5-0.5,1.2-0.5,2C213.5,89.7,213.5,89.9,213.5,89.9z M226.7,93.5h-1.4v-6.4H222v6.4h-1.4v-7.5h6.1L226.7,93.5L226.7,93.5z
			 M234.5,87.1h-2.5v6.4h-1.4v-6.4h-2.4v-1.1h6.3V87.1L234.5,87.1z M235.7,89.7c0-1.1,0.3-2,0.9-2.7c0.6-0.7,1.4-1.1,2.4-1.1
			c1,0,1.9,0.4,2.5,1.1s0.9,1.6,0.9,2.7v0.2c0,1.1-0.3,2-0.9,2.7c-0.6,0.7-1.4,1.1-2.4,1.1c-1,0-1.8-0.4-2.4-1.1
			c-0.6-0.7-0.9-1.6-0.9-2.7L235.7,89.7L235.7,89.7z M237,89.9c0,0.8,0.2,1.4,0.5,2c0.3,0.5,0.8,0.8,1.5,0.8c0.6,0,1.1-0.3,1.5-0.8
			c0.3-0.5,0.5-1.2,0.5-2v-0.2c0-0.8-0.2-1.4-0.5-2c-0.3-0.5-0.8-0.8-1.5-0.8c-0.6,0-1.1,0.3-1.5,0.8c-0.3,0.5-0.5,1.2-0.5,2V89.9z
			 M248.4,91.7L248.4,91.7l2.5-5.7h1.7v7.5h-1.4v-5.2l0,0l-2.3,5.2H248l-2.3-5.3l0,0v5.3h-1.4v-7.5h1.8L248.4,91.7z"/>
	</g>
</g>
</svg>
