<svg xmlns="http://www.w3.org/2000/svg" width="23" height="30" viewBox="0 0 23 30">
    <g fill="none" fill-rule="evenodd">
        <path fill="#FFF" d="M-1165-48H275V56h-1440z"/>
        <path fill="#393939" fill-rule="nonzero" d="M22.179 7.907h-4.432V3.9C17.747 1.746 16.092 0 14.051 0H8.949C6.908 0 5.253 1.746 5.253 3.9v4.007H.821c-.453 0-.821.388-.821.867v.034s.554 13.865.752 18.71C.81 28.907 1.897 30 3.216 30h16.568c1.322.001 2.41-1.098 2.464-2.491L23 8.813v-.035a.892.892 0 0 0-.24-.615.8.8 0 0 0-.581-.256zM6.896 3.9c0-1.196.92-2.166 2.053-2.166h5.102c1.134 0 2.053.97 2.053 2.166v4.008H6.896V3.9zm12.888 24.372H3.216c-.44 0-.802-.364-.822-.827-.168-4.108-.591-14.654-.714-17.804h3.573v5.741c0 .479.368.867.821.867.454 0 .822-.388.822-.867v-5.74h9.208v5.74c0 .479.368.867.822.867.453 0 .821-.388.821-.867v-5.74h3.573l-.714 17.803c-.02.463-.382.828-.822.827z"/>
    </g>
</svg>
