<?xml version="1.0" encoding="utf-8"?>
<!-- Generator: Adobe Illustrator 22.1.0, SVG Export Plug-In . SVG Version: 6.00 Build 0)  -->
<svg version="1.1" id="Слой_1" xmlns="http://www.w3.org/2000/svg" xmlns:xlink="http://www.w3.org/1999/xlink" x="0px" y="0px"
	 viewBox="0 0 23.2 16.7" style="enable-background:new 0 0 23.2 16.7;" xml:space="preserve">
<style type="text/css">
	.st0{fill:#F99F1C;}
</style>
<g>
	<g>
		<path class="st0" d="M21.4,0.6L9.1,14.5L1.7,8.6C1.3,8.3,0.8,8.3,0.5,8.7C0.3,9,0.3,9.5,0.7,9.8l8,6.4c0.1,0.1,0.3,0.2,0.5,0.2
			c0.2,0,0.4-0.1,0.6-0.3L22.6,1.7c0.3-0.3,0.3-0.8-0.1-1.1C22.2,0.3,21.7,0.3,21.4,0.6L21.4,0.6z M21.4,0.6"/>
		<path class="st0" d="M9.2,16.7c-0.3,0-0.5-0.1-0.7-0.3l-8-6.4c-0.5-0.4-0.6-1.1-0.2-1.7C0.5,8.2,0.7,8,1.1,8
			c0.3,0,0.6,0.1,0.9,0.3L9,14L21.1,0.4C21.3,0.2,21.6,0,21.9,0c0.3,0,0.6,0.1,0.8,0.3c0.2,0.2,0.4,0.5,0.4,0.8
			c0,0.3-0.1,0.6-0.3,0.8L10.1,16.4C9.8,16.6,9.5,16.7,9.2,16.7z M1.2,8.7C1.2,8.7,1.1,8.8,1.2,8.7C1,8.8,0.9,8.8,0.8,8.9
			C0.7,9.1,0.7,9.4,0.9,9.5l8,6.4C9.1,16,9.3,16,9.5,15.9L22.3,1.5c0.1-0.1,0.1-0.2,0.1-0.3c0-0.1-0.1-0.2-0.1-0.3
			c-0.1-0.1-0.2-0.1-0.3-0.1c-0.1,0-0.2,0.1-0.3,0.1l0,0L9.1,15L1.4,8.8C1.4,8.8,1.3,8.7,1.2,8.7z"/>
	</g>
</g>
</svg>
