<?xml version="1.0" encoding="utf-8"?>
<!-- Generator: Adobe Illustrator 22.1.0, SVG Export Plug-In . SVG Version: 6.00 Build 0)  -->
<svg version="1.1" id="Слой_1" xmlns="http://www.w3.org/2000/svg" xmlns:xlink="http://www.w3.org/1999/xlink" x="0px" y="0px"
	 viewBox="0 0 18 23" style="enable-background:new 0 0 18 23;" xml:space="preserve">
<style type="text/css">
	.st0{fill:#2D2929;}
</style>
<g>
	<path class="st0" d="M16.9,6.3h-3.3V3.4c0-1.6-1.2-2.9-2.7-2.9H7.1c-1.5,0-2.7,1.3-2.7,2.9v2.9H1.1c-0.3,0-0.6,0.3-0.6,0.6v0
		c0,0,0.4,10.2,0.6,13.7c0,1,0.8,1.8,1.8,1.8h12.2c1,0,1.8-0.8,1.8-1.8L17.5,7v0c0-0.2-0.1-0.3-0.2-0.5C17.2,6.4,17.1,6.3,16.9,6.3z
		 M5.6,3.4c0-0.9,0.7-1.6,1.5-1.6h3.8c0.8,0,1.5,0.7,1.5,1.6v2.9H5.6V3.4z M15.1,21.2H2.9c-0.3,0-0.6-0.3-0.6-0.6
		c-0.1-3-0.4-10.7-0.5-13.1h2.6v4.2c0,0.4,0.3,0.6,0.6,0.6c0.3,0,0.6-0.3,0.6-0.6V7.6h6.8v4.2c0,0.4,0.3,0.6,0.6,0.6
		c0.3,0,0.6-0.3,0.6-0.6V7.6h2.6l-0.5,13.1C15.7,21,15.4,21.2,15.1,21.2z"/>
</g>
</svg>
