<?xml version="1.0" encoding="utf-8"?>
<!-- Generator: Adobe Illustrator 22.1.0, SVG Export Plug-In . SVG Version: 6.00 Build 0)  -->
<svg version="1.1" id="Слой_1" xmlns="http://www.w3.org/2000/svg" xmlns:xlink="http://www.w3.org/1999/xlink" x="0px" y="0px"
	 viewBox="0 0 158.8 35.9" style="enable-background:new 0 0 158.8 35.9;" xml:space="preserve">
<style type="text/css">
	.st0{opacity:0.887;}
	.st1{fill:#2C3455;}
	.st2{fill:#424A67;}
</style>
<g>
	<g class="st0">
		<path class="st1" d="M3.9,20.1C0.2,8.6,7.8,4.4,12,4.2c1.3,0.8,2.5,2.4,4.9,1.9C13.2,5.5,12.3,1.5,9,0.3C7.6-0.3,5.4,0,4.5,0.9
			C5.9,1.1,7.1,1.7,8,2.3C6.9,2.2,5.9,2.4,5.3,2.8c1.1,0.4,1.6,0.6,2.3,1.5C4.9,5.9-0.2,10.3,3.9,20.1 M15.1,3.6
			c1.2,0.3,3.2,1.4,2.5,2.6c0.3,0.2,0.5,0.4,0.8,0.8C19.1,5.2,17.1,3.8,15.1,3.6 M17.3,6.6c0.4,0.8,0.8,1.9,0.6,2.9
			c-0.5,0-1.2,0.1-1.6,0.3c1.2,0,2,0.9,1.5,2.2C19.5,10.9,19.2,8.1,17.3,6.6"/>
		<path class="st1" d="M10.6,13.2c0.4-0.2,1-0.4,1.5-0.4c2.5-0.2,4.7,1.6,5.8,2.6c1.2-0.6,1.8-2.6,1-3.9c0.2,1-0.4,1.9-0.9,2.3
			c-1.8-1.2-4.8-2.6-7.5-1.4c-2.2,1.1-3.8,3.5-4.2,5.9C7.2,16.3,8.3,14.3,10.6,13.2 M15.1,2.8c-0.1,0.4-0.3,0.4-0.5,0.6
			c1.2,0.2,2.2,0.5,2.8,1.3c0.2-1.8-1.4-3.4-3-2.3C14.7,2.4,15,2.6,15.1,2.8 M12.6,5.1c-0.5,0.5-0.9,1-0.8,1.9
			c0.2-0.8,0.8-1.2,1.9-1.2C13.3,5.5,13,5.4,12.6,5.1C12.6,5.1,12.6,5.1,12.6,5.1 M14.8,8.1c0.4-0.4,0.8-0.9,0.7-1.7
			c-0.2-0.1-0.5-0.1-0.8-0.2C15,6.8,15.1,7.6,14.8,8.1 M13.8,5.9c-0.3,0-0.6,0.2-0.6,0.6c0,0.3,0.2,0.6,0.6,0.6
			c0.3,0,0.6-0.2,0.6-0.6S14.1,5.9,13.8,5.9"/>
		<path class="st1" d="M12.3,6.7c0-0.2,0-0.3,0.1-0.5C12.1,6.5,12,6.7,12.1,7c0.1,0.6,0.6,1.1,1.4,1.1c0.6,0,1.1-0.4,1.2-0.8
			c-0.2,0.2-0.6,0.4-1,0.4C13,7.8,12.4,7.3,12.3,6.7 M22.7,23.4C19.2,15.9,14.3,12,10.6,14c-3,1.5-4.7,5.2-2.8,11.2
			c-1.5-6.6,1.9-8.9,3.2-9.3c4.5-1.4,8.1,2.3,11.9,9.7c0.9,1.8,2.8,6.7,3.4,8.6C25.4,30.8,24.4,27.2,22.7,23.4 M5.7,27.3
			c1.4,1.4,2.3,2.2,3.4,2.8c-0.6-0.4-1.8-1.6-2.5-2.4c-2.9-3.2-5-6.7-5.8-10.9c-0.3-1.6-0.4-4,1.5-4.1c-1.9-0.5-2.5,1.2-2.1,4
			C0.6,20.4,2.8,24.4,5.7,27.3"/>
		<path class="st1" d="M10.9,5.1C10.3,5.5,9.7,6,9.4,6.6c-0.7,1.5-0.2,3.3,1.1,3.9c1,0.5,2.2,0.2,3.1-0.6c-0.7,0.4-1.5,0.4-2.2,0.1
			C10,9.3,9.4,7.6,10.2,6.1C10.4,5.7,10.6,5.4,10.9,5.1 M12.7,11.6c1.9-0.1,3.4,0.5,4.6,1.2c0.3,0.2,0.6,0.3,0.8,0.5
			c0.3-0.1,0.5-0.4,0.6-0.6c0.1-0.1,0.1-0.4,0.1-0.5c-0.1,0.2-0.3,0.4-0.5,0.5c-0.3-0.2-0.6-0.4-0.9-0.5c-2-0.9-5.1-1.3-7.2-0.1
			c-1.1,0.6-1.8,1.4-2.3,2.3C8.9,13,10.4,11.7,12.7,11.6 M9.6,23.7c-0.1-0.1-0.1-0.2-0.1-0.4c0,0.4,0.1,0.9,0.3,1.4
			c0.5,1.2,1.5,1.9,2.1,1.6c0.6-0.3,0.8-1.2,0.5-2.2c0.1,0.7-0.1,1.3-0.5,1.5C11.2,25.8,10.2,25,9.6,23.7 M13.3,22.5
			c-0.6,0.3-1.6-0.5-2.2-1.9C11,20.5,11,20.4,11,20.3c0,0.4,0.1,0.9,0.3,1.4c0.5,1.2,1.5,1.9,2.1,1.6C14,23,14.1,22,13.9,21
			C13.9,21.7,13.7,22.3,13.3,22.5 M15,26.5c-0.5,0.2-1.2-0.4-1.6-1.4c-0.1-0.1-0.1-0.2-0.1-0.3c0,0.3,0.1,0.7,0.2,1.1
			c0.4,0.9,1.1,1.4,1.6,1.2c0.4-0.2,0.6-0.9,0.4-1.7C15.4,25.9,15.3,26.4,15,26.5 M11.2,33.8c0-1.1,0.9-2.1,2.1-2.1
			c0.1,0,0.1,0,0.2,0c0.3-0.1,0.7-0.2,1-0.2c-0.8-0.8-2.1-0.8-3-0.1c-0.4-0.3-0.9-0.5-1.4-0.5c-1.3,0-2.4,1.1-2.4,2.5
			c0,1.3,1.1,2.5,2.4,2.5c0.1,0,0.1,0,0.2,0c-1.1-0.1-1.8-1-1.8-2.1c0-1.1,0.9-2.1,2.1-2.1c0.2,0,0.4,0.1,0.6,0.1
			c-0.4,0.5-0.6,1-0.6,1.6c0,1.3,1.1,2.5,2.4,2.5c0.1,0,0.1,0,0.2,0C12,35.8,11.2,34.9,11.2,33.8 M7.2,32.1
			c-2.5,0.6-4.8,1.8-6.5,3.4c1.8-1.1,3.9-1.8,6.2-2.2v-0.1C6.9,32.8,7,32.4,7.2,32.1"/>
		<path class="st1" d="M14.2,31.7C14.1,31.7,14.1,31.7,14.2,31.7c-0.4,0.1-0.6,0.1-0.9,0.2c0,0-0.2,0.1-0.1,0.1
			c-0.2,0.1-0.4,0.2-0.5,0.3c-0.1,0.1-0.2,0.2-0.4,0.2h-0.1c-0.1,0.1-0.2,0.1-0.2,0.2l0,0c3.8,0.1,7.3,1.1,10.2,2.8
			c-1.9-1.9-4.6-3.2-7.7-3.8C14.5,31.6,14.4,31.7,14.2,31.7"/>
	</g>
	<path class="st2" d="M30.6,28.8c0-0.6,0.1-1.4,0.2-2.7c0.1-0.2,0.1-0.4,0.1-0.5c0-0.9-0.4-1.2-0.4-2c0.1-0.8,0.1-1.5,0.1-2.5
		c0-0.8,0.2-1.3,0.2-2.7c-0.1-1.2-0.1-1.8-0.1-2.8c-0.1-0.8-0.2-1.6-0.2-2.2c0-0.1,0.1-0.3,0.1-0.5c0.1-0.6,0.2-1.3,0.2-2.1
		c-0.1-0.9-0.1-1.1-0.1-1.3c0-0.2,0-0.5-0.1-1.1c-0.1-1.1,0.1-1.6-0.4-2.2c-0.5-0.5-1.2-1.1-1.2-1.4s0.2-0.4,1-0.4
		c0.5,0,1.5-0.1,2.2-0.1c0.5,0,1.1,0.2,1.7,0.2c0.2,0,0.4,0,0.5-0.1c0.3-0.1,0.9-0.2,1.7-0.2c0.3,0,0.6,0,1.4,0.1
		c0.6,0,1-0.1,1.3-0.1c0.2,0,0.4,0,0.6,0.1c0.8,0.1,1.8,0.2,2.5,0.7c0.7,0.5,1.5,1.1,1.5,2.6c0,1.1,0.1,2.3,0.1,3.3
		c0,0.4,0,0.6-0.1,0.9c-0.1,0.8-0.2,1.3-0.2,1.8s0.2,1,0.2,1.7c0,0.6-0.2,1.2-0.2,1.9c0,0.4,0.1,0.8,0.1,1.8c0,1.4,0.2,2.8,0.2,4.3
		c0,1.5-0.2,2.9-0.3,3.5c-0.1,0.7,0.1,1.9-0.5,2.8c-0.5,0.8-1.2,1.3-2,1.5c-0.7,0.1-1.5,0.3-2.1,0.3c-0.5,0-0.7-0.1-1.1-0.1
		c-0.9,0-1.4-0.1-1.9-0.1c-0.4,0-0.9,0.1-1.3,0.1c-0.5,0-0.8-0.2-1.3-0.2c-0.1,0-0.2,0-0.4,0.1c-0.8,0.1-1.6,0.1-1.9,0.1
		c-0.2,0-0.9,0.1-1.3,0.1c-0.4,0-0.6-0.1-0.6-0.1c0-0.1,0.2-0.4,0.7-0.8C30.5,29.9,30.6,29.4,30.6,28.8L30.6,28.8z M34.2,12.5
		c0,0.9,0.1,0.8,0.2,1.8c0,0.2,0.1,0.3,0.1,0.5c0,0.7-0.1,1.3-0.1,2.1c0,1.7,0.1,2,0.1,2.9c0,0.5-0.1,0.8-0.1,1.7
		c0,0.7,0.1,1.4,0.1,2.1c0,0.3,0,0.5-0.1,1c0,0.8,0.3,1.5,0.3,2.5s0.1,1.3,0.5,1.3c0.4-0.1,0.6-0.1,0.8-0.1c0.4,0,0.5,0.2,1,0.2
		c0.4,0,0.8-0.2,1.2-0.2c0.7,0,1.4-0.9,1.5-1.7c0.1-0.9,0.1-3.1,0.2-4.2c0-0.6-0.1-1.2-0.1-1.9c0-0.5,0.1-1.2,0.1-1.8
		c0-0.4-0.1-0.9-0.1-1.5c0-0.6,0.4-1.2,0.4-1.8c0-0.6-0.4-1.6-0.4-1.6s0.1-1.3,0.1-2.5v-0.5c-0.1-1.1-0.1-1.8-0.4-2.3
		c-0.3-0.5-1.5-0.8-2.6-0.8c-0.8,0.1-1.2,0.2-1.8,0.2c-0.6,0-0.4,0.8-0.5,1.2c-0.1,0.4-0.2,0.5-0.2,0.9c0,0.1,0.1,0.3,0.1,0.6
		c0.1,0.1,0.1,0.3,0.1,0.4C34.4,11.6,34.2,11.8,34.2,12.5L34.2,12.5z M46.6,11.6c0-0.8,0.2-2.9,0.2-3.5c0.1-1.8,0.5-2.7,1.3-3.1
		c0.3-0.1,1.1-0.5,2.3-0.5c1.2,0,2.7,0.1,3.2,0.1h1.4c0.2,0,0.4-0.1,0.6-0.1c0.4,0,0.7,0.1,1,0.1c0.6,0.1,3.1,0.5,3.1,3.3
		c0,2,0.2,3.8,0.2,4.9c0,0.4-0.1,0.7-0.1,0.9c-0.2,0.5-0.3,1.1-0.3,1.6c0.1,0.9,0.1,1.7,0.1,2.4c0,0.2,0.1,0.5,0.1,0.9
		c0,0.8,0.1,2.3,0.1,3.6c0,0.2-0.1,0.4-0.1,0.6c-0.1,1.6-0.2,3.3-0.3,3.8c-0.1,0.1-0.1,0.2-0.1,0.2c0,0.4,0.2,0.9,0.2,1.5
		c0,1.1-0.9,3.1-2.4,3.1c-2.3-0.1-2.6-0.1-2.9-0.1c-0.2,0-0.5,0.1-0.8,0.1c-0.2,0.1-0.4,0.1-0.5,0.1c-1.3,0-2.2,0.1-3.8,0.1
		c-0.4,0-0.8-0.1-1-0.1c-0.6-0.1-1.8-0.8-1.8-3.1c0-1.7-0.1-2.7-0.1-3.3c0-0.6,0.3-1.1,0.3-1.8c0-0.4-0.1-0.7-0.1-1.2
		c0-0.6,0.1-1.5,0.1-2.3c0-0.2-0.1-0.4-0.1-0.6c-0.1-1.2-0.2-1.4-0.2-2.3s0.2-2.9,0.2-3.5C46.9,12.8,46.6,12.4,46.6,11.6L46.6,11.6z
		 M50.6,10.9c0,0.4,0,0.9-0.1,1.3c0,1.2,0.1,2.1,0.1,3.3c0,1-0.1,1.3-0.1,1.6c0,0.5,0.2,0.9,0.2,1.4c0,0.5-0.2,0.9-0.3,1.4
		c0,0.1,0,0.2,0,0.4c0,0.6,0.2,1.2,0.3,3.1c0.1,1.1,0.1,2,0.1,2.8v0.9c0,0.9,0.6,0.8,1.2,1.1c0.2,0.1,0.5,0.1,0.8,0.1
		c0.4,0,1-0.1,1.6-0.2c1.1-0.1,1.2-0.1,1.4-0.5s0.1-1.3,0.2-2.8c0.1-1.5,0.1-3.3,0.1-4.1c0-0.8-0.1-1.2-0.1-1.6
		c0-0.5,0.3-0.9,0.3-1.4c0-0.2-0.1-0.4-0.1-0.8C56,16.3,56,15.3,56,14.2v-0.9c0-0.9,0.1-2,0.1-2.9c0-0.4,0-0.8-0.1-1.1
		c-0.1-0.8-0.8-1.2-1.4-1.3c-0.5,0-1.4,0.1-1.9,0.2c-0.4,0.1-0.7,0.1-1,0.1h-0.6C50.8,8.3,50.6,8.8,50.6,10.9z M63.8,28.8
		c0-0.6,0.1-1.4,0.2-2.7c0.1-0.2,0.1-0.4,0.1-0.5c0-0.9-0.4-1.2-0.4-2c0.1-0.8,0.1-1.5,0.1-2.5c0-0.8,0.2-1.3,0.2-2.7
		c-0.1-1.2-0.1-1.8-0.1-2.8c-0.1-0.8-0.2-1.6-0.2-2.2c0-0.1,0.1-0.3,0.1-0.5c0.1-0.6,0.2-1.3,0.2-2.1C64,9.9,64,9.8,64,9.5
		c0-0.2,0-0.5-0.1-1.1c-0.1-1.1,0.1-1.6-0.4-2.2c-0.5-0.5-1.2-1.1-1.2-1.4s0.2-0.4,1-0.4c0.5,0,1.5-0.1,2.2-0.1
		c0.5,0,1.1,0.2,1.7,0.2c0.2,0,0.4,0,0.5-0.1c0.3-0.1,0.9-0.2,1.7-0.2c0.3,0,0.6,0,1.4,0.1c0.6,0,1-0.1,1.3-0.1c0.2,0,0.4,0,0.6,0.1
		c0.8,0.1,1.8,0.2,2.5,0.7c0.7,0.5,1.5,1.1,1.5,2.6c0,1.1,0.1,2.3,0.1,3.3c0,0.4,0,0.6-0.1,0.9c-0.1,0.8-0.2,1.3-0.2,1.8
		s0.2,1,0.2,1.7c0,0.6-0.2,1.2-0.2,1.9c0,0.4,0.1,0.8,0.1,1.8c0,1.4,0.2,2.8,0.2,4.3c0,1.5-0.2,2.8-0.3,3.5
		c-0.1,0.7,0.1,1.9-0.5,2.8c-0.5,0.8-1.2,1.3-2,1.5c-0.7,0.1-1.5,0.3-2.1,0.3c-0.5,0-0.7-0.1-1.1-0.1c-0.9,0-1.4-0.1-1.9-0.1
		c-0.4,0-0.9,0.1-1.3,0.1c-0.5,0-0.8-0.2-1.3-0.2c-0.1,0-0.2,0-0.4,0.1c-0.8,0.1-1.6,0.1-1.9,0.1c-0.2,0-0.9,0.1-1.3,0.1
		c-0.4,0-0.6-0.1-0.6-0.1c0-0.1,0.2-0.4,0.7-0.8C63.6,29.9,63.8,29.4,63.8,28.8L63.8,28.8z M67.3,12.5c0,0.9,0.1,0.8,0.2,1.8
		c0,0.2,0.1,0.3,0.1,0.5c0,0.7-0.1,1.3-0.1,2.1c0,1.7,0.1,2,0.1,2.9c0,0.5-0.1,0.8-0.1,1.7c0,0.7,0.1,1.4,0.1,2.1c0,0.3,0,0.5-0.1,1
		c0,0.8,0.3,1.5,0.3,2.5s0.1,1.3,0.5,1.3c0.4-0.1,0.6-0.1,0.8-0.1c0.4,0,0.5,0.2,1,0.2c0.4,0,0.8-0.2,1.2-0.2c0.7,0,1.4-0.9,1.5-1.7
		c0.1-0.9,0.1-3.1,0.2-4.2c0-0.6-0.1-1.2-0.1-1.9c0-0.5,0.1-1.2,0.1-1.8c0-0.4-0.1-0.9-0.1-1.5c0-0.6,0.4-1.2,0.4-1.8
		c0-0.6-0.4-1.6-0.4-1.6s0.1-1.3,0.1-2.5v-0.5c-0.1-1.1-0.1-1.8-0.4-2.3c-0.3-0.5-1.5-0.8-2.6-0.8c-0.8,0.1-1.2,0.2-1.8,0.2
		c-0.6,0-0.4,0.8-0.5,1.2c-0.1,0.4-0.2,0.5-0.2,0.9c0,0.1,0.1,0.3,0.1,0.6c0.1,0.1,0.1,0.3,0.1,0.4C67.6,11.6,67.3,11.8,67.3,12.5
		L67.3,12.5z M79.7,11.6c0-0.8,0.2-2.9,0.2-3.5c0.1-1.8,0.5-2.7,1.3-3.1c0.3-0.1,1.1-0.5,2.3-0.5s2.7,0.1,3.2,0.1h1.4
		c0.2,0,0.4-0.1,0.6-0.1c0.4,0,0.7,0.1,1,0.1C90.4,4.6,93,5.1,93,7.9c0,2,0.2,3.8,0.2,4.9c0,0.4-0.1,0.7-0.1,0.9
		c-0.2,0.5-0.3,1.1-0.3,1.6c0.1,0.9,0.1,1.7,0.1,2.4c0,0.2,0.1,0.5,0.1,0.9c0,0.8,0.1,2.3,0.1,3.6c0,0.2-0.1,0.4-0.1,0.6
		c-0.1,1.6-0.2,3.3-0.3,3.8c-0.1,0.1-0.1,0.2-0.1,0.2c0,0.4,0.2,0.9,0.2,1.5c0,1.1-0.9,3.1-2.4,3.1c-2.3-0.1-2.6-0.1-2.9-0.1
		c-0.2,0-0.5,0.1-0.8,0.1c-0.2,0.1-0.4,0.1-0.5,0.1c-1.3,0-2.2,0.1-3.8,0.1c-0.4,0-0.8-0.1-1-0.1c-0.6-0.1-1.8-0.8-1.8-3.1
		c0-1.7-0.1-2.7-0.1-3.3c0-0.6,0.3-1.1,0.3-1.8c0-0.4-0.1-0.7-0.1-1.2c0-0.6,0.1-1.5,0.1-2.3c0-0.2-0.1-0.4-0.1-0.6
		c-0.1-1.2-0.2-1.4-0.2-2.3s0.2-2.9,0.2-3.5C80,12.8,79.7,12.4,79.7,11.6L79.7,11.6z M83.7,10.9c0,0.4,0,0.9-0.1,1.3
		c0,1.2,0.1,2.1,0.1,3.3c0,1-0.1,1.3-0.1,1.6c0,0.5,0.2,0.9,0.2,1.4c0,0.5-0.2,0.9-0.3,1.4c-0.1,0.1-0.1,0.3-0.1,0.4
		c0,0.6,0.2,1.2,0.3,3.1c0.1,1.1,0.1,2,0.1,2.8v0.9c0,0.9,0.6,0.8,1.2,1.1c0.2,0.1,0.5,0.1,0.8,0.1c0.4,0,1-0.1,1.6-0.2
		c1.1-0.1,1.2-0.1,1.4-0.5c0.2-0.4,0.1-1.3,0.2-2.8c0.1-1.5,0.1-3.3,0.1-4.1c0-0.8-0.1-1.2-0.1-1.6c0-0.5,0.3-0.9,0.3-1.4
		c0-0.2-0.1-0.4-0.1-0.8c-0.2-0.7-0.2-1.7-0.2-2.8v-0.9c0-0.9,0.1-2,0.1-2.9c0-0.4,0-0.8-0.1-1.1c-0.1-0.8-0.8-1.2-1.4-1.3
		c-0.5,0-1.4,0.1-1.9,0.2c-0.4,0.1-0.7,0.1-1,0.1H84C83.9,8.3,83.7,8.8,83.7,10.9z M106.3,12.6c-0.2,0.2-0.3,0.3-0.7,0.3
		c-0.2,0-0.4-0.4-0.4-1c0-0.2,0-0.4,0.1-0.5c0.1-0.3,0.1-0.6,0.1-0.9c0-0.6-0.1-1.2-0.1-1.9c0-0.8-0.4-0.8-1.2-0.8
		c-0.8,0-1.6,0.1-2.8,0.1s-1,0.7-1.2,1.4c-0.1,0.1-0.1,0.2-0.1,0.3c0,0.5,0.2,0.9,0.2,1.5c0,0.1,0,0.2-0.1,0.4
		c-0.1,0.8-0.1,1.9-0.2,3.1c0,0.2-0.1,0.4-0.1,0.5c0,0.7,0.2,0.9,0.2,1.9c0,0.8-0.1,1.3-0.1,2c0,0.3,0,0.6,0.1,0.9
		c0,1.1-0.1,1.5-0.2,2.2c0,0.5,0.1,1.5,0.2,2.2c0.1,0.8,0.1,1.9,0.1,3c0,1.1,0.5,1.3,1.1,1.3c0.5,0,1.2-0.2,1.8-0.2
		c0.3,0,0.6,0.1,1,0.1c0.5,0,0.8-0.3,1.2-0.3c0.4,0,0.4-0.7,0.4-1.5c0-0.3,0-0.5,0.1-0.8c0.1-0.4,0.1-0.9,0.1-1.5s-0.1-1.2-0.1-1.6
		c-0.1-0.8-0.1-1.3-0.1-1.3c-0.1-0.1-0.1-0.1-0.1-0.1c-0.4,0-1.3,1.1-1.7,1.1c-0.4,0-0.4-0.6-0.4-1.4V20c0-0.5,0.4-1.1,0.7-1.2
		c0.5-0.2,1.5-0.6,2-0.8c0.9-0.5,1.6-1,2.6-1c0.6,0,0.5,0.5,0.5,1.1c-0.1,1.1-0.1,2.2-0.1,3.3c0,0.9,0.2,0.9,0.2,1.4v1.8
		c0,0.8,0,1.5-0.1,1.8c-0.1,0.2-0.1,0.4-0.1,0.6c0,0.4,0.1,0.8,0.1,2.2c0,2.1-2.4,2.6-2.8,2.7c-0.6,0-1.2-0.1-1.7-0.1
		c-0.4,0-0.8,0.2-1.7,0.2c-0.8,0-1.7-0.1-5-0.1c-1.6,0-1.8-1.5-1.8-1.7c0-0.1-0.2-0.6-0.2-1.2c0-0.4,0.2-0.8,0.2-1.3
		c0-0.6-0.2-1.2-0.2-2.2v-0.8c0-0.9-0.2-1.2-0.2-2.3c0-0.3,0-0.6,0.1-1c0.1-2.3,0.1-3.2,0.1-4c0-0.8-0.1-2-0.2-2.7
		c0-0.1-0.1-0.2-0.1-0.4c0-0.6,0.4-1.2,0.4-1.9c0-0.3-0.1-0.6-0.1-1.2c-0.1-0.2-0.1-0.6-0.1-1.1c0-0.9,0.1-1.9,0.1-2.9
		c0-1.4,2.1-2.4,3.1-2.5c1-0.1,2.9-0.1,3.3-0.1c0.2,0,0.8,0.1,1.3,0.1c0.1,0,0.3-0.1,0.4-0.1c0.4-0.1,0.9-0.1,1.3-0.1
		c0.2,0,0.4,0.1,0.6,0.1c0.4,0.1,1.1,0.1,1.6,0.1c0.8,0,1.2,1.2,1.2,2c0,0.2-0.1,0.5-0.1,0.9c0,0.3,0.1,0.7,0.1,1.4
		c0,0.5,0.1,1.1,0.1,1.6c0,0.6-1.3,0.7-1.5,1.2C107.6,12.2,106.5,12.3,106.3,12.6L106.3,12.6z M112.5,11.6c0-0.8,0.2-2.9,0.2-3.5
		c0.1-1.8,0.5-2.7,1.3-3.1c0.3-0.1,1.1-0.5,2.3-0.5s2.7,0.1,3.2,0.1h1.4c0.2,0,0.4-0.1,0.6-0.1c0.4,0,0.7,0.1,1,0.1
		c0.6,0.1,3.1,0.5,3.1,3.3c0,2,0.2,3.8,0.2,4.9c0,0.4-0.1,0.7-0.1,0.9c-0.2,0.5-0.3,1.1-0.3,1.6c0.1,0.9,0.1,1.7,0.1,2.4
		c0,0.2,0.1,0.5,0.1,0.9c0,0.8,0.1,2.3,0.1,3.6c0,0.2-0.1,0.4-0.1,0.6c-0.1,1.6-0.2,3.3-0.3,3.8c-0.1,0.1-0.1,0.2-0.1,0.2
		c0,0.4,0.2,0.9,0.2,1.5c0,1.1-0.9,3.1-2.4,3.1c-2.3-0.1-2.6-0.1-2.9-0.1c-0.2,0-0.5,0.1-0.8,0.1c-0.2,0.1-0.4,0.1-0.5,0.1
		c-1.3,0-2.2,0.1-3.8,0.1c-0.4,0-0.8-0.1-1-0.1c-0.6-0.1-1.8-0.8-1.8-3.1c0-1.7-0.1-2.7-0.1-3.3c0-0.6,0.3-1.1,0.3-1.8
		c0-0.4-0.1-0.7-0.1-1.2c0-0.6,0.1-1.5,0.1-2.3c0-0.2-0.1-0.4-0.1-0.6c-0.1-1.2-0.2-1.4-0.2-2.3s0.2-2.9,0.2-3.5
		C112.8,12.8,112.5,12.4,112.5,11.6L112.5,11.6z M116.5,10.9c0,0.4,0,0.9-0.1,1.3c0,1.2,0.1,2.1,0.1,3.3c0,1-0.1,1.3-0.1,1.6
		c0,0.5,0.2,0.9,0.2,1.4c0,0.5-0.2,0.9-0.3,1.4c-0.1,0.1-0.1,0.3-0.1,0.4c0,0.6,0.2,1.2,0.3,3.1c0.1,1.1,0.1,2,0.1,2.8v0.9
		c0,0.9,0.6,0.8,1.2,1.1c0.2,0.1,0.5,0.1,0.8,0.1c0.4,0,1-0.1,1.6-0.2c1.1-0.1,1.2-0.1,1.4-0.5c0.2-0.4,0.1-1.3,0.2-2.8
		c0.1-1.5,0.1-3.3,0.1-4.1c0-0.8-0.1-1.2-0.1-1.6c0-0.5,0.3-0.9,0.3-1.4c0-0.2-0.1-0.4-0.1-0.8c-0.2-0.7-0.2-1.7-0.2-2.8v-0.9
		c0-0.9,0.1-2,0.1-2.9c0-0.4,0-0.8-0.1-1.1c-0.1-0.8-0.8-1.2-1.4-1.3c-0.5,0-1.4,0.1-1.9,0.2c-0.4,0.1-0.7,0.1-1,0.1h-0.6
		C116.7,8.3,116.5,8.8,116.5,10.9L116.5,10.9z M128.5,11.6c0-0.8,0.2-2.9,0.2-3.5c0.1-1.8,0.5-2.7,1.3-3.1c0.3-0.1,1.1-0.5,2.3-0.5
		c1.2,0,2.7,0.1,3.2,0.1h1.4c0.2,0,0.4-0.1,0.6-0.1c0.4,0,0.7,0.1,1,0.1c0.6,0.1,3.1,0.5,3.1,3.3c0,2,0.2,3.8,0.2,4.9
		c0,0.4-0.1,0.7-0.1,0.9c-0.2,0.5-0.3,1.1-0.3,1.6c0.1,0.9,0.1,1.7,0.1,2.4c0,0.2,0.1,0.5,0.1,0.9c0,0.8,0.1,2.3,0.1,3.6
		c0,0.2-0.1,0.4-0.1,0.6c-0.1,1.6-0.2,3.3-0.3,3.8c-0.1,0.1-0.1,0.2-0.1,0.2c0,0.4,0.2,0.9,0.2,1.5c0,1.1-0.9,3.1-2.4,3.1
		c-2.3-0.1-2.6-0.1-2.9-0.1c-0.2,0-0.5,0.1-0.8,0.1c-0.2,0.1-0.4,0.1-0.5,0.1c-1.3,0-2.2,0.1-3.8,0.1c-0.4,0-0.8-0.1-1-0.1
		c-0.6-0.1-1.8-0.8-1.8-3.1c0-1.7-0.1-2.7-0.1-3.3c0-0.6,0.3-1.1,0.3-1.8c0-0.4-0.1-0.7-0.1-1.2c0-0.6,0.1-1.5,0.1-2.3
		c0-0.2-0.1-0.4-0.1-0.6c-0.1-1.2-0.2-1.4-0.2-2.3s0.2-2.9,0.2-3.5C128.8,12.8,128.5,12.4,128.5,11.6L128.5,11.6z M132.5,10.9
		c0,0.4,0,0.9-0.1,1.3c0,1.2,0.1,2.1,0.1,3.3c0,1-0.1,1.3-0.1,1.6c0,0.5,0.2,0.9,0.2,1.4c0,0.5-0.2,0.9-0.3,1.4
		c-0.1,0.1-0.1,0.3-0.1,0.4c0,0.6,0.2,1.2,0.3,3.1c0.1,1.1,0.1,2,0.1,2.8v0.9c0,0.9,0.6,0.8,1.2,1.1c0.2,0.1,0.5,0.1,0.8,0.1
		c0.4,0,1-0.1,1.6-0.2c1.1-0.1,1.2-0.1,1.4-0.5c0.2-0.4,0.1-1.3,0.2-2.8c0.1-1.5,0.1-3.3,0.1-4.1c0-0.8-0.1-1.2-0.1-1.6
		c0-0.5,0.3-0.9,0.3-1.4c0-0.2-0.1-0.4-0.1-0.8c-0.2-0.7-0.2-1.7-0.2-2.8v-0.9c0-0.9,0.1-2,0.1-2.9c0-0.4,0-0.8-0.1-1.1
		c-0.1-0.8-0.8-1.2-1.4-1.3c-0.5,0-1.4,0.1-1.9,0.2c-0.4,0.1-0.7,0.1-1,0.1h-0.6C132.7,8.3,132.5,8.8,132.5,10.9L132.5,10.9z
		 M145.7,28.8c0-0.6,0.1-1.4,0.2-2.7c0.1-0.2,0.1-0.4,0.1-0.5c0-0.9-0.4-1.2-0.4-2c0.1-0.8,0.1-1.5,0.1-2.5c0-0.8,0.2-1.3,0.2-2.7
		c-0.1-1.2-0.1-1.8-0.1-2.8c-0.1-0.8-0.2-1.6-0.2-2.2c0-0.1,0.1-0.3,0.1-0.5c0.1-0.6,0.2-1.3,0.2-2.1c-0.1-0.9-0.1-1.1-0.1-1.3
		c0-0.2,0-0.5-0.1-1.1c-0.1-1.1,0.1-1.6-0.4-2.2c-0.5-0.5-1.2-1.1-1.2-1.4s0.2-0.4,1-0.4c0.5,0,1.5-0.1,2.2-0.1
		c0.5,0,1.1,0.2,1.7,0.2c0.2,0,0.4,0,0.5-0.1c0.3-0.1,0.9-0.2,1.7-0.2c0.3,0,0.6,0,1.4,0.1c0.6,0,1-0.1,1.3-0.1c0.2,0,0.4,0,0.6,0.1
		c0.8,0.1,1.8,0.2,2.5,0.7s1.5,1.1,1.5,2.6c0,1.1,0.1,2.3,0.1,3.3c0,0.4,0,0.6-0.1,0.9c-0.1,0.8-0.2,1.3-0.2,1.8s0.2,1,0.2,1.7
		c0,0.6-0.2,1.2-0.2,1.9c0,0.4,0.1,0.8,0.1,1.8c0,1.4,0.2,2.8,0.2,4.3c0,1.5-0.2,2.8-0.3,3.5c-0.1,0.7,0.1,1.9-0.5,2.8
		c-0.5,0.8-1.2,1.3-2,1.5c-0.7,0.1-1.5,0.3-2.1,0.3c-0.5,0-0.7-0.1-1.1-0.1c-0.9,0-1.4-0.1-1.9-0.1c-0.4,0-0.9,0.1-1.3,0.1
		s-0.8-0.2-1.3-0.2c-0.1,0-0.2,0-0.4,0.1c-0.8,0.1-1.6,0.1-1.9,0.1c-0.2,0-0.9,0.1-1.3,0.1c-0.4,0-0.6-0.1-0.6-0.1
		c0-0.1,0.2-0.4,0.7-0.8C145.6,29.9,145.7,29.4,145.7,28.8L145.7,28.8z M149.3,12.5c0,0.9,0.1,0.8,0.2,1.8c0,0.2,0.1,0.3,0.1,0.5
		c0,0.7-0.1,1.3-0.1,2.1c0,1.7,0.1,2,0.1,2.9c0,0.5-0.1,0.8-0.1,1.7c0,0.7,0.1,1.4,0.1,2.1c0,0.3,0,0.5-0.1,1c0,0.8,0.3,1.5,0.3,2.5
		s0.1,1.3,0.5,1.3c0.4-0.1,0.6-0.1,0.8-0.1c0.4,0,0.5,0.2,1,0.2c0.4,0,0.8-0.2,1.2-0.2c0.7,0,1.4-0.9,1.5-1.7
		c0.1-0.9,0.1-3.1,0.2-4.2c0-0.6-0.1-1.2-0.1-1.9c0-0.5,0.1-1.2,0.1-1.8c0-0.4-0.1-0.9-0.1-1.5c0-0.6,0.4-1.2,0.4-1.8
		c0-0.6-0.4-1.6-0.4-1.6s0.1-1.3,0.1-2.5v-0.5c-0.1-1.1-0.1-1.8-0.4-2.3c-0.3-0.5-1.5-0.8-2.6-0.8c-0.8,0.1-1.2,0.2-1.8,0.2
		c-0.6,0-0.4,0.8-0.5,1.2c-0.1,0.4-0.2,0.5-0.2,0.9c0,0.1,0.1,0.3,0.1,0.6c0.1,0.1,0.1,0.3,0.1,0.4
		C149.5,11.6,149.3,11.8,149.3,12.5L149.3,12.5z"/>
</g>
</svg>
